<svg width="117" height="78" viewBox="0 0 117 78" fill="none" xmlns="http://www.w3.org/2000/svg">
<path fill-rule="evenodd" clip-rule="evenodd" d="M19.5833 76.7543C8.70935 76.4097 0 67.4862 0 56.5285C0 45.3524 9.06002 36.2924 20.2361 36.2924C25.7686 36.2924 30.7826 38.5126 34.4356 42.1106C36.9831 28.2394 49.1359 17.7287 63.7435 17.7287C68.097 17.7287 72.2324 18.6623 75.9606 20.3401C82.5181 8.71276 94.9849 0.861328 109.285 0.861328C124.134 0.861328 137.006 9.32635 143.338 21.6939C147.713 19.1717 152.788 17.7287 158.201 17.7287C174.659 17.7287 188 31.0702 188 47.5278C188 63.9853 174.659 77.3268 158.201 77.3268C156.22 77.3268 154.284 77.1335 152.41 76.7646H115.855C113.721 77.1342 111.526 77.3269 109.285 77.3269C107.045 77.3269 104.85 77.1342 102.716 76.7646H69.534C67.6609 77.1335 65.7248 77.3268 63.7435 77.3268C61.7622 77.3268 59.8262 77.1335 57.9531 76.7646H20.2361H19.5833V76.7543Z" fill="#FFDFC1"/>
</svg>
